<?xml version="1.0" standalone="no"?>
<!DOCTYPE svg PUBLIC "-//W3C//DTD SVG 20010904//EN"
 "http://www.w3.org/TR/2001/REC-SVG-20010904/DTD/svg10.dtd">
<svg version="1.0" xmlns="http://www.w3.org/2000/svg"
 width="512.000000pt" height="512.000000pt" viewBox="0 0 512.000000 512.000000"
 preserveAspectRatio="xMidYMid meet">

<g transform="translate(0.000000,512.000000) scale(0.100000,-0.100000)"
fill="#000000" stroke="none">
<path d="M0 2560 l0 -2560 2560 0 2560 0 0 2560 0 2560 -2560 0 -2560 0 0
-2560z m3664 2094 c9 -3 16 -12 16 -20 0 -8 8 -14 18 -14 10 0 27 -7 38 -15
30 -22 47 -20 34 6 -15 27 -4 37 17 16 13 -12 14 -19 4 -30 -14 -18 -5 -44 20
-57 26 -14 33 -12 19 5 -7 8 -9 23 -5 32 6 16 9 15 31 -10 13 -15 24 -35 24
-44 0 -8 20 -45 45 -81 61 -92 76 -140 82 -262 5 -103 -1 -158 -32 -269 -12
-46 -12 -57 0 -80 7 -15 73 -81 146 -147 73 -65 171 -154 218 -198 47 -43 150
-133 229 -198 87 -73 152 -136 167 -162 21 -37 23 -49 18 -126 -6 -96 -19
-125 -62 -135 -62 -13 -170 66 -430 319 -113 110 -206 195 -209 188 -2 -6 17
-73 42 -149 85 -260 86 -310 5 -530 -9 -25 -29 -31 -29 -10 0 13 -65 196 -182
511 -56 152 -182 412 -250 516 -23 36 -63 98 -90 139 -33 51 -48 84 -48 107 0
27 -4 34 -20 34 -15 0 -20 -7 -20 -26 0 -54 -66 -169 -130 -227 -36 -32 -60
-62 -60 -74 0 -30 117 -273 131 -273 6 0 39 23 74 50 60 48 97 61 110 40 10
-16 27 -120 31 -185 2 -33 6 -77 10 -97 8 -50 -5 -84 -61 -156 l-47 -61 12
-68 c19 -105 28 -137 44 -158 19 -26 37 -16 95 56 48 59 72 76 116 81 27 3 30
0 37 -42 13 -65 0 -158 -27 -207 -25 -46 -23 -53 7 -27 16 16 18 16 24 0 10
-25 -4 -81 -29 -114 -12 -16 -35 -49 -52 -72 -55 -77 -71 -90 -112 -90 -65 0
-106 46 -132 150 -6 25 -20 63 -31 85 -10 22 -42 101 -71 175 -176 461 -206
527 -342 755 -87 146 -145 233 -196 294 l-44 53 18 47 c10 25 20 73 23 106 4
53 2 58 -12 46 -14 -11 -16 -11 -16 3 0 17 24 71 42 93 8 10 18 6 45 -17 28
-25 42 -30 86 -30 118 0 256 61 309 136 20 27 33 65 44 127 14 75 20 91 43
105 25 16 35 24 116 95 32 28 44 33 58 26 14 -9 20 -4 32 24 8 20 20 37 27 40
7 3 14 6 15 6 1 1 8 -2 17 -5z m-844 -1155 c0 -57 4 -72 21 -88 36 -34 22
-101 -21 -101 -24 0 -29 -24 -37 -167 l-6 -121 44 -6 c320 -38 334 -42 374
-105 14 -23 32 -41 40 -41 21 0 48 -45 40 -69 -3 -12 -16 -23 -28 -26 -37 -9
-287 -9 -383 -1 -57 5 -93 5 -97 -1 -3 -5 -11 -79 -17 -164 -7 -99 -18 -172
-29 -204 -10 -27 -22 -75 -25 -106 -5 -37 -14 -63 -27 -75 -18 -16 -20 -16
-39 1 -11 10 -20 28 -20 41 0 13 -4 26 -10 29 -5 3 -10 1 -10 -5 0 -6 -4 -9
-9 -6 -10 7 -25 295 -22 422 1 51 -2 95 -7 98 -10 6 -37 12 -232 55 -52 11
-105 23 -118 26 -35 8 -47 46 -28 83 11 22 14 44 10 70 -6 41 16 78 41 68 6
-2 38 -7 71 -11 32 -4 82 -12 109 -20 68 -17 138 -26 151 -17 6 4 16 73 23
157 24 308 24 305 62 337 29 25 42 28 86 27 29 -1 56 1 60 4 3 4 12 2 20 -4 8
-8 13 -35 13 -80z m-822 -654 c12 -26 26 -32 37 -15 10 16 42 12 49 -6 10 -26
7 -85 -10 -164 -8 -41 -14 -88 -13 -105 1 -16 -1 -42 -6 -57 -4 -15 -9 -44
-10 -65 -2 -21 -8 -64 -12 -95 l-9 -57 47 -31 c26 -17 67 -37 90 -45 24 -9 53
-23 64 -33 11 -9 37 -26 59 -37 27 -14 44 -32 56 -60 9 -22 25 -46 34 -54 24
-20 20 -69 -10 -108 -24 -32 -57 -43 -69 -23 -3 5 -32 7 -64 5 -46 -4 -60 -1
-65 10 -3 9 -18 15 -34 15 -16 0 -35 7 -42 15 -8 9 -21 13 -31 10 -11 -4 -33
1 -51 9 -17 9 -35 13 -38 9 -10 -11 -29 -84 -45 -173 -8 -41 -21 -100 -30
-130 -17 -55 -34 -122 -39 -150 -5 -32 -47 -166 -59 -190 -14 -28 -46 -39 -58
-19 -4 7 -5 43 -2 79 5 54 2 72 -12 94 -15 22 -17 38 -11 94 4 37 9 81 10 97
6 66 19 144 37 223 11 45 19 100 19 121 0 37 -2 39 -37 45 -21 4 -63 16 -93
27 -51 19 -56 19 -65 4 -39 -67 -75 -72 -75 -12 0 29 -5 37 -29 47 -16 6 -39
22 -51 35 -20 22 -21 27 -10 81 7 31 25 89 41 128 16 39 29 72 29 72 0 1 21 4
46 7 42 4 137 -19 169 -42 6 -4 30 -14 55 -21 25 -7 51 -18 58 -24 10 -7 16
-6 22 4 10 16 36 143 55 270 27 175 48 240 79 240 7 0 18 -11 24 -25z m1292
-278 c0 -6 -9 -2 -20 8 -11 10 -17 22 -13 28 6 10 33 -19 33 -36z m53 -79 c9
-29 23 -79 32 -110 11 -42 24 -64 45 -80 39 -28 57 -89 41 -135 -10 -26 -8
-42 9 -92 26 -77 26 -101 -1 -108 -22 -6 -22 -6 6 -83 15 -41 15 -47 0 -73
-11 -18 -14 -38 -10 -57 3 -16 2 -45 -4 -66 -11 -41 -3 -71 10 -36 5 12 13 22
20 22 13 0 9 -193 -4 -206 -14 -14 -27 19 -27 67 0 29 -7 55 -18 70 -10 13
-21 32 -25 42 -3 9 -11 17 -17 17 -20 0 -22 -29 -5 -80 21 -62 15 -85 -20 -76
l-25 6 0 -77 c-1 -73 -2 -76 -15 -53 -8 14 -14 51 -15 83 0 56 -1 58 -22 52
-13 -4 -29 -13 -36 -19 -14 -14 -28 -161 -25 -273 2 -63 0 -73 -15 -74 -40 -3
-58 4 -77 27 -89 110 -97 109 -83 -11 14 -110 15 -164 3 -164 -5 0 -10 20 -10
46 0 47 0 47 -35 47 -28 1 -35 -3 -35 -19 0 -21 -23 -25 -56 -11 -23 10 -31
-19 -18 -64 8 -25 8 -43 1 -56 -6 -11 -7 -39 -2 -69 5 -30 4 -55 -2 -62 -15
-19 -59 8 -107 65 -56 67 -98 97 -115 82 -17 -13 -8 -59 24 -124 12 -25 19
-50 16 -55 -3 -5 -22 -12 -42 -15 -31 -6 -40 -3 -75 28 -21 20 -45 36 -52 36
-8 0 -22 9 -32 20 -10 11 -22 20 -27 20 -24 0 7 -76 49 -122 26 -27 24 -48 -3
-48 -9 0 -45 16 -81 37 -56 31 -69 34 -85 24 -16 -10 -23 -9 -35 1 -9 7 -29
11 -46 9 -45 -4 -175 52 -192 84 -6 11 -30 40 -54 63 -37 39 -128 208 -117
219 2 2 42 -34 88 -81 70 -72 89 -86 115 -86 18 0 35 5 39 11 3 6 15 8 26 6
14 -4 18 -1 14 11 -2 9 -7 40 -11 67 l-7 50 49 -48 c55 -53 67 -57 84 -24 7
12 17 25 22 29 10 6 4 34 -20 98 -3 8 15 -4 39 -28 25 -24 51 -44 59 -45 8 -2
20 -6 27 -10 19 -13 32 2 26 31 -4 22 3 35 41 71 49 48 56 74 25 91 -29 16
-24 29 10 28 16 -1 36 5 45 12 13 11 20 9 45 -15 18 -18 34 -25 39 -19 4 5 5
43 1 84 -4 41 -7 76 -6 77 1 1 23 -18 49 -41 47 -43 82 -58 118 -49 26 7 32
34 20 100 -8 46 -8 66 4 98 8 22 14 50 15 63 0 27 16 29 24 4 8 -24 65 -82 81
-82 8 0 14 27 18 83 3 45 13 99 22 121 10 25 14 49 9 69 -6 28 -5 30 9 19 8
-7 18 -28 21 -46 4 -18 15 -41 26 -51 18 -16 20 -16 37 1 14 14 18 34 17 97
l0 79 29 -36 c16 -20 35 -36 42 -36 7 0 20 16 30 36 17 37 17 104 -1 179 -7
27 -6 29 9 16 10 -7 17 -22 17 -32 0 -29 29 -22 36 9 3 15 10 42 16 61 13 41
4 113 -17 145 -15 23 -15 23 9 19 22 -5 26 -1 32 32 4 21 2 47 -5 61 -6 14
-11 41 -11 60 0 19 -7 51 -15 71 -18 41 -18 43 -6 43 4 0 15 -24 24 -52z
m-2211 0 c9 -7 36 -58 60 -113 39 -91 43 -107 40 -171 -2 -66 1 -79 49 -190
69 -162 127 -325 145 -409 8 -38 23 -94 34 -123 11 -29 20 -60 20 -70 0 -9 12
-39 26 -67 15 -27 36 -85 48 -129 12 -44 29 -84 38 -89 11 -7 32 -3 73 14 56
23 57 23 71 4 8 -11 19 -38 24 -60 6 -22 15 -53 21 -70 27 -69 23 -119 -15
-199 -51 -105 -83 -126 -193 -126 -93 0 -105 9 -118 85 -4 22 -18 77 -32 122
-27 89 -26 114 8 157 16 21 24 24 35 16 15 -13 34 -5 34 15 0 7 -9 34 -20 60
-15 34 -24 45 -36 41 -12 -5 -14 0 -8 29 7 37 -9 48 -33 24 -6 -6 -16 -8 -21
-5 -11 6 -92 166 -92 180 0 20 -223 530 -240 549 -4 5 -11 -13 -15 -40 -4 -26
-19 -70 -33 -96 -30 -56 -116 -139 -136 -131 -27 11 -23 -26 13 -117 21 -52
42 -105 46 -119 4 -14 14 -33 23 -42 17 -20 72 -24 90 -6 9 9 16 7 32 -7 17
-16 25 -17 40 -7 22 13 29 6 35 -35 2 -16 13 -65 25 -111 11 -46 20 -97 20
-113 0 -37 -33 -103 -62 -123 l-21 -15 31 -120 c97 -362 108 -551 32 -551 -25
0 -35 16 -68 105 -17 44 -60 152 -97 240 -37 88 -96 241 -131 340 -89 252
-218 500 -359 690 -108 147 -117 164 -111 214 3 25 8 69 11 96 7 69 28 215 30
215 1 0 23 -20 47 -45 42 -41 50 -45 95 -45 54 0 164 39 198 71 12 10 29 16
40 13 17 -4 20 0 19 23 0 15 -4 40 -8 56 -10 33 9 83 36 98 13 7 30 7 54 -1
34 -12 38 -11 72 23 34 32 99 77 113 77 3 0 13 -6 21 -12z"/>
<path d="M3676 4249 c-57 -51 -58 -72 -8 -147 21 -31 69 -108 106 -170 37 -62
72 -112 78 -110 6 2 19 26 30 53 41 102 19 279 -42 349 -28 31 -84 66 -108 66
-5 0 -30 -18 -56 -41z"/>
<path d="M4170 3510 c0 -26 36 -46 55 -30 21 17 1 50 -30 50 -18 0 -25 -5 -25
-20z"/>
<path d="M4213 3413 c-27 -5 -29 -16 -8 -33 13 -11 18 -10 30 6 16 21 19 35 8
33 -5 -1 -18 -4 -30 -6z"/>
<path d="M3410 2776 c0 -14 71 -191 81 -200 15 -16 11 -5 -31 99 -38 93 -50
118 -50 101z"/>
<path d="M3080 1316 c0 -2 7 -9 15 -16 9 -7 15 -8 15 -2 0 5 -7 12 -15 16 -8
3 -15 4 -15 2z"/>
<path d="M3130 1241 c0 -13 29 -35 37 -28 7 8 -15 37 -28 37 -5 0 -9 -4 -9 -9z"/>
<path d="M2830 1070 c0 -16 4 -30 8 -30 5 0 9 14 9 30 0 17 -4 30 -9 30 -4 0
-8 -13 -8 -30z"/>
</g>
</svg>
